<svg width="7" height="6" viewBox="0 0 7 6" fill="none" xmlns="http://www.w3.org/2000/svg">
<path fill-rule="evenodd" clip-rule="evenodd" d="M3.20218 2.27892L5.3626 0.118492C5.52059 -0.0394974 5.77674 -0.0394974 5.93473 0.118492C6.09272 0.276482 6.09272 0.532634 5.93473 0.690624L3.77431 2.85105L5.93479 5.01153C6.09278 5.16952 6.09278 5.42567 5.93479 5.58366C5.7768 5.74165 5.52065 5.74165 5.36266 5.58366L3.20218 3.42318L1.0417 5.58366C0.883708 5.74165 0.627556 5.74165 0.469567 5.58366C0.311577 5.42567 0.311577 5.16951 0.469567 5.01152L2.63004 2.85105L0.469628 0.69063C0.311638 0.53264 0.311638 0.276488 0.469628 0.118498C0.627617 -0.0394917 0.883769 -0.0394917 1.04176 0.118498L3.20218 2.27892Z" fill="#3C59F0"/>
</svg>
