<svg width="118" height="27" viewBox="0 0 118 27" fill="none" xmlns="http://www.w3.org/2000/svg">
<path d="M0 5.77742H17.3419V26.6226H13.9338V9.31936H3.40806V26.6226H0V5.77742Z" fill="#3C59F0"/>
<path d="M24.0984 5.77742H35.8607V9.31936H27.5064V14.1387H34.9559V17.6806H27.5064V23.0806H35.8607V26.6226H24.0984V5.77742ZM25.3953 3.5129C24.9931 3.12581 24.7921 2.64194 24.7921 2.06129C24.7921 1.48065 24.9931 0.996775 25.3953 0.609678C25.7974 0.203226 26.3001 0 26.9033 0C27.5064 0 28.0091 0.203226 28.4112 0.609678C28.8134 0.996775 29.0144 1.48065 29.0144 2.06129C29.0144 2.64194 28.8134 3.12581 28.4112 3.5129C28.0091 3.9 27.5064 4.09355 26.9033 4.09355C26.3001 4.09355 25.7974 3.9 25.3953 3.5129ZM31.5177 3.5129C31.1156 3.12581 30.9145 2.64194 30.9145 2.06129C30.9145 1.48065 31.1156 0.996775 31.5177 0.609678C31.9198 0.203226 32.4225 0 33.0257 0C33.6289 0 34.1316 0.203226 34.5337 0.609678C34.9559 0.996775 35.167 1.48065 35.167 2.06129C35.167 2.64194 34.9559 3.12581 34.5337 3.5129C34.1316 3.9 33.6289 4.09355 33.0257 4.09355C32.4225 4.09355 31.9198 3.9 31.5177 3.5129Z" fill="#3C59F0"/>
<path d="M59.3585 23.1677C58.7151 24.271 57.6796 25.1903 56.252 25.9258C54.8245 26.6419 53.1154 27 51.1249 27C49.6772 27 48.2999 26.7387 46.993 26.2161C45.6861 25.6935 44.5299 24.9581 43.5246 24.0097C42.5394 23.0613 41.7552 21.929 41.1721 20.6129C40.589 19.2774 40.2975 17.8065 40.2975 16.2C40.2975 14.5742 40.589 13.1032 41.1721 11.7871C41.7552 10.4516 42.5394 9.31935 43.5246 8.39032C44.5299 7.44194 45.6861 6.70645 46.993 6.18387C48.2999 5.66129 49.6772 5.4 51.1249 5.4C52.09 5.4 52.9948 5.50645 53.8393 5.71936C54.7038 5.9129 55.4779 6.18387 56.1616 6.53226C56.8653 6.88065 57.4685 7.2871 57.9711 7.75161C58.4738 8.19677 58.8759 8.67097 59.1775 9.1742L58.1219 12.1065C57.8002 11.6806 57.4082 11.2742 56.9457 10.8871C56.5034 10.5 55.9907 10.1613 55.4076 9.87097C54.8446 9.58065 54.2213 9.35807 53.5377 9.20323C52.854 9.02903 52.1302 8.94194 51.3661 8.94194C50.2402 8.94194 49.2148 9.11613 48.2899 9.46452C47.365 9.79355 46.5607 10.2677 45.8771 10.8871C45.2136 11.5065 44.6908 12.271 44.3088 13.1806C43.9468 14.071 43.7659 15.0774 43.7659 16.2C43.7659 17.3226 43.9468 18.329 44.3088 19.2194C44.6908 20.1097 45.2136 20.8742 45.8771 21.5129C46.5607 22.1323 47.365 22.6161 48.2899 22.9645C49.2148 23.2935 50.2402 23.4581 51.3661 23.4581C53.0149 23.4581 54.4223 23.1387 55.5885 22.5C56.7748 21.8419 57.6897 21.0774 58.3331 20.2065L59.3585 23.1677Z" fill="#3C59F0"/>
<path d="M64.4902 5.77742H76.2525V9.31936H67.8982V14.1387H75.3477V17.6806H67.8982V23.0806H76.2525V26.6226H64.4902V5.77742Z" fill="#3C59F0"/>
<path d="M98.1819 5.77742V26.6226H94.804V9.31936H88.4102C88.3297 12.3194 88.1387 14.9129 87.8371 17.1C87.5355 19.2871 87.1032 21.0968 86.5403 22.529C85.9773 23.9613 85.2735 25.0258 84.4291 25.7226C83.6047 26.4 82.6195 26.7387 81.4734 26.7387C81.2522 26.7387 81.0311 26.7194 80.8099 26.6806C80.5887 26.6419 80.4078 26.5935 80.267 26.5355L79.6638 23.5161C80.267 23.4774 80.8199 23.371 81.3226 23.1968C81.8253 23.0032 82.2676 22.6839 82.6496 22.2387C83.0518 21.7742 83.4036 21.1452 83.7052 20.3516C84.0068 19.5387 84.2582 18.4839 84.4592 17.1871C84.6603 15.871 84.8111 14.2839 84.9116 12.4258C85.0323 10.5677 85.1026 8.35161 85.1227 5.77742H98.1819Z" fill="#3C59F0"/>
<path d="M111.063 26.6226C112.048 26.6226 112.963 26.4677 113.808 26.1581C114.652 25.8484 115.386 25.4129 116.009 24.8516C116.633 24.2903 117.115 23.6129 117.457 22.8194C117.819 22.0258 118 21.1452 118 20.1774C118 19.2484 117.829 18.3871 117.487 17.5935C117.145 16.8 116.673 16.1226 116.07 15.5613C115.467 15 114.743 14.5645 113.898 14.2548C113.054 13.9258 112.119 13.7613 111.093 13.7613H108.349V5.77742H104.941V26.6226H111.063ZM108.349 23.0806V17.3032H111.606C112.451 17.3032 113.154 17.5742 113.717 18.1161C114.3 18.6387 114.592 19.3355 114.592 20.2065C114.592 21.0194 114.31 21.7065 113.747 22.2677C113.205 22.8097 112.491 23.0806 111.606 23.0806H108.349Z" fill="#3C59F0"/>
</svg>
